<svg xmlns="http://www.w3.org/2000/svg" viewBox="0 0 520 390" role="img" aria-label="Oferta 02">
  <defs>
    <linearGradient id="p" x1="42" y1="334" x2="474" y2="54" gradientUnits="userSpaceOnUse">
      <stop stop-color="#bdf7d6"/>
      <stop offset="1" stop-color="#22c878"/>
    </linearGradient>
    <filter id="d" x="-20%" y="-20%" width="140%" height="140%">
      <feDropShadow dx="0" dy="18" stdDeviation="18" flood-color="#052e1c" flood-opacity=".18"/>
    </filter>
  </defs>
  <rect width="520" height="390" rx="34" fill="#f7fbf8"/>
  <circle cx="420" cy="74" r="78" fill="#22c878" opacity=".45"/>
  <circle cx="88" cy="316" r="92" fill="#bdf7d6" opacity=".25"/>
  <g filter="url(#d)">
    <rect x="162" y="70" width="196" height="238" rx="34" fill="url(#p)"/>
    <rect x="191" y="102" width="138" height="58" rx="18" fill="#fff" opacity=".92"/>
    <path d="M209 220c24-56 72-64 103-58 2 29-13 80-70 91-15 3-30 1-43-7 19-16 38-29 63-39-31 7-52 19-69 36-4-8-3-16 1-23Z" fill="#fff" opacity=".96"/>
  </g>
  <text x="260" y="335" text-anchor="middle" fill="#052e1c" font-family="Arial, sans-serif" font-size="28" font-weight="800">Oferta 02</text>
  <text x="260" y="360" text-anchor="middle" fill="#526158" font-family="Arial, sans-serif" font-size="15" font-weight="700">Saúde e beleza</text>
</svg>