<svg xmlns="http://www.w3.org/2000/svg" viewBox="0 0 128 128" role="img" aria-label="LifeLabs">
  <defs>
    <linearGradient id="g" x1="18" y1="112" x2="111" y2="16" gradientUnits="userSpaceOnUse">
      <stop stop-color="#064e2f"/>
      <stop offset=".52" stop-color="#15a865"/>
      <stop offset="1" stop-color="#bdf7d6"/>
    </linearGradient>
    <filter id="s" x="-18%" y="-18%" width="136%" height="136%">
      <feDropShadow dx="0" dy="10" stdDeviation="10" flood-color="#052e1c" flood-opacity=".22"/>
    </filter>
  </defs>
  <rect width="128" height="128" rx="32" fill="#f0fdf6"/>
  <path filter="url(#s)" d="M64 16c25.7 0 46.5 20.8 46.5 46.5 0 34.4-33.9 49.1-46.5 49.1S17.5 96.9 17.5 62.5C17.5 36.8 38.3 16 64 16Z" fill="url(#g)"/>
  <path d="M40.8 70.2c8.8-30.1 35.6-33.4 49.3-32.4 1.1 14.2-4.4 38.8-31.8 45.5-5.6 1.4-11.6 1.1-17.5-1.1 6.8-7.1 15.3-13.7 27-19.9-13.6 3.8-23.1 9.8-30.6 17.6-1.2-3.1-1.2-6.3-.4-9.7Z" fill="#fff"/>
  <path d="M81.2 79.6c7.8 2.4 13.2 6.8 16.2 13.2-8.6 1-15.5-1.1-20.5-6.3 1.8-2.1 3.2-4.4 4.3-6.9Z" fill="#dff8ea"/>
  <circle cx="91" cy="33" r="5" fill="#fff"/>
  <circle cx="38" cy="42" r="3.5" fill="#dff8ea"/>
</svg>
