<svg xmlns="http://www.w3.org/2000/svg" viewBox="0 0 360 92" role="img" aria-label="LifeLabs">
  <defs>
    <linearGradient id="logoGradient" x1="10" y1="82" x2="78" y2="12" gradientUnits="userSpaceOnUse">
      <stop stop-color="#2f347e"/>
      <stop offset=".55" stop-color="#15a865"/>
      <stop offset="1" stop-color="#eef2ff"/>
    </linearGradient>
  </defs>
  <rect x="2" y="2" width="88" height="88" rx="24" fill="#eef2ff"/>
  <path d="M46 13c17.9 0 32.4 14.5 32.4 32.4 0 24-23.6 34.2-32.4 34.2S13.6 69.4 13.6 45.4C13.6 27.5 28.1 13 46 13Z" fill="url(#logoGradient)"/>
  <path d="M30 50.8c6.2-21 24.8-23.3 34.4-22.6.8 9.9-3.1 27.1-22.2 31.7-3.9 1-8.1.8-12.2-.8 4.7-4.9 10.7-9.6 18.8-13.9-9.5 2.7-16.1 6.8-21.3 12.3-.8-2.1-.8-4.4-.3-6.7Z" fill="#fff"/>
  <circle cx="64" cy="25" r="3.5" fill="#fff"/>
  <text x="112" y="56" fill="#ffffff" font-family="Inter, ui-sans-serif, system-ui, -apple-system, BlinkMacSystemFont, 'Segoe UI', Arial, sans-serif" font-size="43" font-weight="850" letter-spacing="-2">LifeLabs</text>
  <text x="114" y="76" fill="#eef2ff" font-family="Inter, ui-sans-serif, system-ui, -apple-system, BlinkMacSystemFont, 'Segoe UI', Arial, sans-serif" font-size="12" font-weight="800" letter-spacing="3">OFERTAS SELECIONADAS</text>
</svg>
